<mxfile host="app.diagrams.net" modified="2021-01-24T16:59:17.938Z" agent="5.0 (Windows NT 10.0; Win64; x64) AppleWebKit/537.36 (KHTML, like Gecko) Chrome/87.0.4280.141 Safari/537.36" etag="zvYZPSpF42senAi42Pzc" version="14.2.7" type="github">
  <diagram id="2kj-cef8ynUlKYEhg2BP" name="Page-1">
    <mxGraphModel dx="1038" dy="580" grid="1" gridSize="10" guides="1" tooltips="1" connect="1" arrows="1" fold="1" page="1" pageScale="1" pageWidth="1100" pageHeight="850" math="0" shadow="0">
      <root>
        <mxCell id="0" />
        <mxCell id="1" parent="0" />
        <mxCell id="ErcBbXOjY15VecP5GbHi-14" value="" style="edgeStyle=orthogonalEdgeStyle;rounded=0;orthogonalLoop=1;jettySize=auto;html=1;" edge="1" parent="1" source="ErcBbXOjY15VecP5GbHi-1" target="ErcBbXOjY15VecP5GbHi-4">
          <mxGeometry relative="1" as="geometry" />
        </mxCell>
        <mxCell id="ErcBbXOjY15VecP5GbHi-1" value="client 1" style="whiteSpace=wrap;html=1;aspect=fixed;" vertex="1" parent="1">
          <mxGeometry x="40" y="50" width="80" height="80" as="geometry" />
        </mxCell>
        <mxCell id="ErcBbXOjY15VecP5GbHi-15" value="" style="edgeStyle=orthogonalEdgeStyle;rounded=0;orthogonalLoop=1;jettySize=auto;html=1;" edge="1" parent="1" source="ErcBbXOjY15VecP5GbHi-2" target="ErcBbXOjY15VecP5GbHi-4">
          <mxGeometry relative="1" as="geometry" />
        </mxCell>
        <mxCell id="ErcBbXOjY15VecP5GbHi-2" value="client 2" style="whiteSpace=wrap;html=1;aspect=fixed;" vertex="1" parent="1">
          <mxGeometry x="40" y="180" width="80" height="80" as="geometry" />
        </mxCell>
        <mxCell id="ErcBbXOjY15VecP5GbHi-16" value="" style="edgeStyle=orthogonalEdgeStyle;rounded=0;orthogonalLoop=1;jettySize=auto;html=1;" edge="1" parent="1" source="ErcBbXOjY15VecP5GbHi-3" target="ErcBbXOjY15VecP5GbHi-4">
          <mxGeometry relative="1" as="geometry" />
        </mxCell>
        <mxCell id="ErcBbXOjY15VecP5GbHi-3" value="client 3" style="whiteSpace=wrap;html=1;aspect=fixed;" vertex="1" parent="1">
          <mxGeometry x="40" y="310" width="80" height="80" as="geometry" />
        </mxCell>
        <mxCell id="ErcBbXOjY15VecP5GbHi-17" style="edgeStyle=orthogonalEdgeStyle;rounded=0;orthogonalLoop=1;jettySize=auto;html=1;entryX=0;entryY=0.5;entryDx=0;entryDy=0;" edge="1" parent="1" source="ErcBbXOjY15VecP5GbHi-4" target="ErcBbXOjY15VecP5GbHi-5">
          <mxGeometry relative="1" as="geometry">
            <Array as="points">
              <mxPoint x="330" y="210" />
              <mxPoint x="330" y="70" />
            </Array>
          </mxGeometry>
        </mxCell>
        <mxCell id="ErcBbXOjY15VecP5GbHi-19" style="edgeStyle=orthogonalEdgeStyle;rounded=0;orthogonalLoop=1;jettySize=auto;html=1;entryX=0.5;entryY=1;entryDx=0;entryDy=0;" edge="1" parent="1" source="ErcBbXOjY15VecP5GbHi-4" target="ErcBbXOjY15VecP5GbHi-7">
          <mxGeometry relative="1" as="geometry" />
        </mxCell>
        <mxCell id="ErcBbXOjY15VecP5GbHi-4" value="LOAD BALANCER" style="shape=process;whiteSpace=wrap;html=1;backgroundOutline=1;direction=south;" vertex="1" parent="1">
          <mxGeometry x="200" y="20" width="70" height="420" as="geometry" />
        </mxCell>
        <mxCell id="ErcBbXOjY15VecP5GbHi-21" style="edgeStyle=orthogonalEdgeStyle;rounded=0;orthogonalLoop=1;jettySize=auto;html=1;entryX=0;entryY=0.5;entryDx=0;entryDy=0;entryPerimeter=0;" edge="1" parent="1" source="ErcBbXOjY15VecP5GbHi-5" target="ErcBbXOjY15VecP5GbHi-11">
          <mxGeometry relative="1" as="geometry">
            <Array as="points">
              <mxPoint x="450" y="20" />
              <mxPoint x="820" y="20" />
            </Array>
          </mxGeometry>
        </mxCell>
        <mxCell id="ErcBbXOjY15VecP5GbHi-29" value="write request" style="edgeLabel;html=1;align=center;verticalAlign=middle;resizable=0;points=[];" vertex="1" connectable="0" parent="ErcBbXOjY15VecP5GbHi-21">
          <mxGeometry x="-0.2226" y="7" relative="1" as="geometry">
            <mxPoint as="offset" />
          </mxGeometry>
        </mxCell>
        <mxCell id="ErcBbXOjY15VecP5GbHi-31" value="read request" style="edgeStyle=orthogonalEdgeStyle;rounded=0;orthogonalLoop=1;jettySize=auto;html=1;entryX=0.07;entryY=0.4;entryDx=0;entryDy=0;entryPerimeter=0;" edge="1" parent="1" source="ErcBbXOjY15VecP5GbHi-5" target="ErcBbXOjY15VecP5GbHi-8">
          <mxGeometry relative="1" as="geometry" />
        </mxCell>
        <mxCell id="ErcBbXOjY15VecP5GbHi-5" value="app server" style="rounded=0;whiteSpace=wrap;html=1;" vertex="1" parent="1">
          <mxGeometry x="390" y="40" width="120" height="60" as="geometry" />
        </mxCell>
        <mxCell id="ErcBbXOjY15VecP5GbHi-20" style="edgeStyle=orthogonalEdgeStyle;rounded=0;orthogonalLoop=1;jettySize=auto;html=1;exitX=0.58;exitY=0;exitDx=0;exitDy=0;exitPerimeter=0;" edge="1" parent="1" source="ErcBbXOjY15VecP5GbHi-4" target="ErcBbXOjY15VecP5GbHi-6">
          <mxGeometry relative="1" as="geometry" />
        </mxCell>
        <mxCell id="ErcBbXOjY15VecP5GbHi-35" value="" style="edgeStyle=orthogonalEdgeStyle;rounded=0;orthogonalLoop=1;jettySize=auto;html=1;entryX=0.16;entryY=0.55;entryDx=0;entryDy=0;entryPerimeter=0;" edge="1" parent="1" source="ErcBbXOjY15VecP5GbHi-6" target="ErcBbXOjY15VecP5GbHi-9">
          <mxGeometry relative="1" as="geometry" />
        </mxCell>
        <mxCell id="ErcBbXOjY15VecP5GbHi-6" value="app server" style="rounded=0;whiteSpace=wrap;html=1;" vertex="1" parent="1">
          <mxGeometry x="400" y="330" width="120" height="60" as="geometry" />
        </mxCell>
        <mxCell id="ErcBbXOjY15VecP5GbHi-33" style="edgeStyle=orthogonalEdgeStyle;rounded=0;orthogonalLoop=1;jettySize=auto;html=1;entryX=0.07;entryY=0.4;entryDx=0;entryDy=0;entryPerimeter=0;" edge="1" parent="1" source="ErcBbXOjY15VecP5GbHi-7" target="ErcBbXOjY15VecP5GbHi-10">
          <mxGeometry relative="1" as="geometry" />
        </mxCell>
        <mxCell id="ErcBbXOjY15VecP5GbHi-7" value="app server" style="rounded=0;whiteSpace=wrap;html=1;" vertex="1" parent="1">
          <mxGeometry x="390" y="170" width="120" height="60" as="geometry" />
        </mxCell>
        <mxCell id="ErcBbXOjY15VecP5GbHi-32" value="if cache miss" style="edgeStyle=orthogonalEdgeStyle;rounded=0;orthogonalLoop=1;jettySize=auto;html=1;entryX=0;entryY=1;entryDx=0;entryDy=-15;entryPerimeter=0;exitX=0.875;exitY=0.5;exitDx=0;exitDy=0;exitPerimeter=0;" edge="1" parent="1" source="ErcBbXOjY15VecP5GbHi-8" target="ErcBbXOjY15VecP5GbHi-11">
          <mxGeometry relative="1" as="geometry" />
        </mxCell>
        <mxCell id="ErcBbXOjY15VecP5GbHi-8" value="cache" style="ellipse;shape=cloud;whiteSpace=wrap;html=1;" vertex="1" parent="1">
          <mxGeometry x="630" y="40" width="120" height="80" as="geometry" />
        </mxCell>
        <mxCell id="ErcBbXOjY15VecP5GbHi-9" value="cache" style="ellipse;shape=cloud;whiteSpace=wrap;html=1;" vertex="1" parent="1">
          <mxGeometry x="600" y="310" width="120" height="80" as="geometry" />
        </mxCell>
        <mxCell id="ErcBbXOjY15VecP5GbHi-34" style="edgeStyle=orthogonalEdgeStyle;rounded=0;orthogonalLoop=1;jettySize=auto;html=1;entryX=0.5;entryY=1;entryDx=0;entryDy=0;entryPerimeter=0;exitX=0.8;exitY=0.8;exitDx=0;exitDy=0;exitPerimeter=0;" edge="1" parent="1" source="ErcBbXOjY15VecP5GbHi-10" target="ErcBbXOjY15VecP5GbHi-12">
          <mxGeometry relative="1" as="geometry" />
        </mxCell>
        <mxCell id="ErcBbXOjY15VecP5GbHi-10" value="cache" style="ellipse;shape=cloud;whiteSpace=wrap;html=1;" vertex="1" parent="1">
          <mxGeometry x="590" y="150" width="120" height="80" as="geometry" />
        </mxCell>
        <mxCell id="ErcBbXOjY15VecP5GbHi-11" value="DB" style="shape=cylinder3;whiteSpace=wrap;html=1;boundedLbl=1;backgroundOutline=1;size=15;" vertex="1" parent="1">
          <mxGeometry x="840" y="30" width="60" height="80" as="geometry" />
        </mxCell>
        <mxCell id="ErcBbXOjY15VecP5GbHi-26" style="edgeStyle=orthogonalEdgeStyle;rounded=0;orthogonalLoop=1;jettySize=auto;html=1;exitX=0.583;exitY=0;exitDx=0;exitDy=0;exitPerimeter=0;" edge="1" parent="1" source="ErcBbXOjY15VecP5GbHi-7" target="ErcBbXOjY15VecP5GbHi-12">
          <mxGeometry relative="1" as="geometry">
            <Array as="points">
              <mxPoint x="460" y="150" />
              <mxPoint x="740" y="150" />
              <mxPoint x="740" y="190" />
            </Array>
          </mxGeometry>
        </mxCell>
        <mxCell id="ErcBbXOjY15VecP5GbHi-30" value="write request" style="edgeLabel;html=1;align=center;verticalAlign=middle;resizable=0;points=[];" vertex="1" connectable="0" parent="ErcBbXOjY15VecP5GbHi-26">
          <mxGeometry x="-0.2053" y="1" relative="1" as="geometry">
            <mxPoint as="offset" />
          </mxGeometry>
        </mxCell>
        <mxCell id="ErcBbXOjY15VecP5GbHi-12" value="DB" style="shape=cylinder3;whiteSpace=wrap;html=1;boundedLbl=1;backgroundOutline=1;size=15;" vertex="1" parent="1">
          <mxGeometry x="850" y="150" width="60" height="80" as="geometry" />
        </mxCell>
        <mxCell id="ErcBbXOjY15VecP5GbHi-28" value="write request" style="edgeStyle=orthogonalEdgeStyle;rounded=0;orthogonalLoop=1;jettySize=auto;html=1;exitX=0.39;exitY=0.003;exitDx=0;exitDy=0;exitPerimeter=0;" edge="1" parent="1" source="ErcBbXOjY15VecP5GbHi-6" target="ErcBbXOjY15VecP5GbHi-13">
          <mxGeometry relative="1" as="geometry">
            <Array as="points">
              <mxPoint x="447" y="310" />
              <mxPoint x="780" y="310" />
              <mxPoint x="780" y="340" />
            </Array>
          </mxGeometry>
        </mxCell>
        <mxCell id="ErcBbXOjY15VecP5GbHi-37" style="edgeStyle=orthogonalEdgeStyle;rounded=0;orthogonalLoop=1;jettySize=auto;html=1;exitX=0.55;exitY=0.95;exitDx=0;exitDy=0;exitPerimeter=0;" edge="1" parent="1" source="ErcBbXOjY15VecP5GbHi-9" target="ErcBbXOjY15VecP5GbHi-13">
          <mxGeometry relative="1" as="geometry">
            <Array as="points">
              <mxPoint x="785" y="386" />
              <mxPoint x="785" y="370" />
            </Array>
          </mxGeometry>
        </mxCell>
        <mxCell id="ErcBbXOjY15VecP5GbHi-13" value="DB" style="shape=cylinder3;whiteSpace=wrap;html=1;boundedLbl=1;backgroundOutline=1;size=15;" vertex="1" parent="1">
          <mxGeometry x="850" y="300" width="60" height="80" as="geometry" />
        </mxCell>
      </root>
    </mxGraphModel>
  </diagram>
</mxfile>
